<?xml version="1.0" encoding="UTF-8"?>
<svg version="1.1" xmlns="http://www.w3.org/2000/svg" width="521" height="469">
<path d="M0 0 C1.93352577 -0.0076664 1.93352577 -0.0076664 3.90611267 -0.01548767 C7.41869939 -0.02879528 10.93117797 -0.02946548 14.44378495 -0.02692437 C17.38822807 -0.0258488 20.33264984 -0.03075306 23.27708834 -0.03552979 C30.23096602 -0.04659702 37.18478967 -0.04707846 44.13867188 -0.04101562 C51.28403817 -0.03498106 58.42920729 -0.04728002 65.57453996 -0.06858569 C71.73453096 -0.08626987 77.8944596 -0.09219227 84.05447501 -0.08894795 C87.72236894 -0.08714539 91.39012227 -0.0896673 95.05799294 -0.10366249 C99.15467508 -0.11871098 103.25096269 -0.1092115 107.34765625 -0.09765625 C108.5433725 -0.10529999 109.73908875 -0.11294373 110.97103882 -0.12081909 C129.19490265 -0.00779571 143.98817143 6.39490971 156.86791992 19.2746582 C157.49053711 19.81477539 158.1131543 20.35489258 158.75463867 20.91137695 C168.32268315 29.4473627 174.14087757 42.74984668 175.86791992 55.2746582 C176.76144515 72.35473665 174.40389979 87.96505628 162.74291992 101.3371582 C154.91150465 109.53649231 146.42546853 116.91104971 137.60229492 124.01293945 C133.72273953 127.22188598 130.03369353 130.62487073 126.32885742 134.0324707 C123.57617668 136.54046871 120.7597944 138.92989511 117.86791992 141.2746582 C112.44049689 138.94686955 108.86987231 134.48476584 104.86791992 130.2746582 C104.16151367 129.53860352 103.45510742 128.80254883 102.72729492 128.04418945 C102.09307617 127.35711914 101.45885742 126.67004883 100.80541992 125.9621582 C99.95270508 125.03983398 99.95270508 125.03983398 99.08276367 124.09887695 C97.86791992 122.2746582 97.86791992 122.2746582 97.86791992 118.2746582 C99.59158416 116.36448928 101.24455478 114.7545457 103.18041992 113.0871582 C103.7244043 112.60375977 104.26838867 112.12036133 104.82885742 111.62231445 C109.13851061 107.82262022 113.59124497 104.20422589 118.06713867 100.6027832 C122.19965862 97.16766202 126.11558773 93.51830789 130.04370117 89.8527832 C132.02568892 88.04349979 133.98038836 86.38598736 136.07885742 84.73168945 C138.74586279 82.38218472 139.9000572 80.95536774 141.18041992 77.7121582 C141.48592773 76.96836914 141.79143555 76.22458008 142.10620117 75.45825195 C145.27652914 66.36997844 144.60333107 57.49742726 141.02416992 48.6262207 C139.65137809 45.83425893 137.94961816 43.57939554 135.86791992 41.2746582 C135.86791992 40.6146582 135.86791992 39.9546582 135.86791992 39.2746582 C135.22854492 39.0271582 134.58916992 38.7796582 133.93041992 38.5246582 C132.19676354 37.81704335 130.47084685 37.08688346 128.77807617 36.28637695 C128.02397461 35.93188477 127.26987305 35.57739258 126.49291992 35.2121582 C125.78393555 34.87055664 125.07495117 34.52895508 124.34448242 34.17700195 C117.50130069 31.68366602 110.1204064 32.12076051 102.94091797 32.11352539 C101.75626953 32.10856049 100.57162109 32.10359558 99.35107422 32.09848022 C96.11744347 32.08642288 92.88384876 32.07892724 89.65019965 32.07446957 C87.6250562 32.07152654 85.59991826 32.06741954 83.5747776 32.06296539 C77.22414672 32.04931289 70.8735286 32.03963467 64.52288407 32.0357635 C57.21835739 32.03128491 49.91401803 32.01373693 42.60954827 31.98476291 C36.94475037 31.96308063 31.28000493 31.95305578 25.61516601 31.95172238 C22.24015783 31.95067924 18.86532627 31.94487673 15.49036217 31.92690277 C11.7211334 31.90978403 7.9523577 31.91173695 4.18310547 31.91821289 C2.52831932 31.90439072 2.52831932 31.90439072 0.84010315 31.89028931 C-5.68931615 31.92530214 -12.20213756 32.27902458 -18.13208008 35.2746582 C-21.43844626 38.98017426 -22.25761205 42.15758343 -22.25233459 47.03923035 C-22.25370926 48.01939621 -22.25508392 48.99956207 -22.25650024 50.00942993 C-22.25290497 51.08332977 -22.24930969 52.15722961 -22.24560547 53.26367188 C-22.2457515 54.39552414 -22.24589752 55.5273764 -22.24604797 56.69352722 C-22.24535003 60.44324647 -22.23756312 64.19291635 -22.22973633 67.94262695 C-22.22787173 70.53908766 -22.22644802 73.13554871 -22.22544861 75.73200989 C-22.2220176 81.87304809 -22.21413214 88.01406586 -22.20409912 94.15509635 C-22.19292445 101.1465661 -22.18742412 108.13803669 -22.18240368 115.12951314 C-22.17194917 129.51123772 -22.15435815 143.89294733 -22.13208008 158.2746582 C-21.44537231 157.65433716 -20.75866455 157.03401611 -20.05114746 156.39489746 C-19.15037476 155.58242554 -18.24960205 154.76995361 -17.3215332 153.93286133 C-16.42857544 153.12691528 -15.53561768 152.32096924 -14.61560059 151.49060059 C-12.01484273 149.17005218 -9.35706224 146.94774524 -6.63208008 144.7746582 C-3.03730358 141.8665244 0.4505262 138.88924489 3.86791992 135.7746582 C8.09074552 131.93029339 12.45436565 128.30940286 16.89135742 124.71606445 C20.21576964 121.9893484 23.48374203 119.20368123 26.74291992 116.3996582 C27.32847656 115.896521 27.9140332 115.39338379 28.51733398 114.875 C30.89950852 112.82767584 33.28111214 110.77968984 35.66186523 108.73071289 C37.39438738 107.24202014 39.13070392 105.75786873 40.86791992 104.2746582 C41.38338379 103.83009277 41.89884766 103.38552734 42.42993164 102.92749023 C52.09312323 94.69821187 52.09312323 94.69821187 57.36791992 94.7746582 C58.07948242 94.7643457 58.79104492 94.7540332 59.52416992 94.7434082 C65.44132703 96.08463048 69.43644295 100.63145228 73.30541992 105.0246582 C74.0225415 105.82299072 74.0225415 105.82299072 74.75415039 106.63745117 C76.13308195 108.17658282 77.50247385 109.72356167 78.86791992 111.2746582 C79.8327832 112.36907227 79.8327832 112.36907227 80.81713867 113.4855957 C81.92295161 114.74864545 83.02588365 116.01422403 84.12573242 117.2824707 C86.18292391 119.63486456 88.27388907 121.95500786 90.36791992 124.2746582 C95.15592171 129.58571901 99.88979643 134.93597172 104.51245117 140.3918457 C110.26147956 147.1643972 116.1376243 153.7651398 122.22412109 160.23632812 C125.39439144 163.62717208 128.40608039 167.08261464 131.30541992 170.7121582 C134.95623341 175.27735592 138.85440466 179.53155626 142.86791992 183.7746582 C149.21311432 190.48514098 155.16657431 197.40325913 160.75854492 204.76293945 C162.37147029 206.7931216 163.87323213 208.61887368 165.86791992 210.2746582 C168.88872128 210.59174592 168.88872128 210.59174592 171.86791992 209.2746582 C185.07115457 205.1936584 198.15504351 206.61644197 210.54760742 212.55981445 C223.51858556 219.81305613 234.33668919 231.35231587 238.86791992 245.7121582 C242.59303247 261.03762123 241.10041908 274.88965961 232.99536133 288.5402832 C224.24345434 302.00358923 211.33879032 310.09060619 195.93041992 314.0246582 C181.62036462 315.19282598 167.85407778 313.34196731 156.27026367 304.23168945 C143.86224046 293.35829355 135.06235809 281.60284021 133.54760742 264.70043945 C133.15266458 251.89112668 136.74630098 241.38890899 142.86791992 230.2746582 C142.01520508 229.33106445 142.01520508 229.33106445 141.14526367 228.3684082 C136.94695092 223.71451894 132.77616417 219.04110812 128.66088867 214.3137207 C126.68950949 212.07176007 124.68629302 209.86080018 122.68041992 207.6496582 C119.04507472 203.62547302 115.5065868 199.52954047 111.99291992 195.3996582 C107.65156684 190.30081863 103.21191134 185.31346024 98.66577148 180.39672852 C95.5884238 177.06835174 92.57976502 173.69118771 89.61010742 170.2668457 C87.55291593 167.91445185 85.46195078 165.59430854 83.36791992 163.2746582 C78.46319362 157.83412146 73.6297634 152.34012033 68.87182617 146.77075195 C68.06902222 145.83150879 68.06902222 145.83150879 67.25 144.87329102 C66.17955361 143.61981991 65.11033669 142.36529759 64.04248047 141.10961914 C63.54659424 140.52857422 63.05070801 139.9475293 62.53979492 139.34887695 C61.87608887 138.56903442 61.87608887 138.56903442 61.19897461 137.7734375 C59.80204581 136.20048338 58.43412533 134.6812671 56.86791992 133.2746582 C53.03801454 133.40048672 50.97757882 135.73896871 48.30541992 138.2746582 C44.84682443 141.48116948 41.35262181 144.5649731 37.68041992 147.5246582 C33.15851054 151.18311955 28.75013094 154.95158536 24.36791992 158.7746582 C19.23772479 163.24841936 14.04261476 167.61417445 8.74682617 171.8918457 C5.87331527 174.27019258 3.06877572 176.71277861 0.26806641 179.17578125 C-18.30187092 195.48655715 -18.30187092 195.48655715 -28.38208008 196.6496582 C-38.38571065 195.64929515 -44.83361677 190.9313525 -51.13208008 183.2746582 C-54.22897717 178.1454224 -55.25373013 173.87350641 -55.27252197 167.93908691 C-55.27823212 166.85709015 -55.28394226 165.77509338 -55.28982544 164.66030884 C-55.2909433 163.47794647 -55.29206116 162.29558411 -55.29321289 161.07739258 C-55.2981778 159.82811981 -55.3031427 158.57884705 -55.30825806 157.29171753 C-55.32035958 153.86562247 -55.32782386 150.4395884 -55.33226871 147.01347923 C-55.33520486 144.86856704 -55.33931085 142.72366013 -55.34377289 140.57875061 C-55.35744706 133.85541799 -55.36711214 127.13209752 -55.37097478 120.40875196 C-55.37544502 112.67180561 -55.39294491 104.93503684 -55.42197537 97.19814444 C-55.44367837 91.20386702 -55.45368375 85.20963922 -55.4550159 79.21532297 C-55.45605848 75.64235504 -55.46184751 72.06955404 -55.47983551 68.49662781 C-55.49956426 64.50000471 -55.49499316 60.50374674 -55.48852539 56.50708008 C-55.49774017 55.34091156 -55.50695496 54.17474304 -55.51644897 52.97323608 C-55.44086655 37.98263115 -51.41235146 25.55995868 -41.06958008 14.5246582 C-28.76472644 2.82249127 -16.39808799 -0.03380369 0 0 Z M169.55541992 245.5246582 C165.42126473 252.26179999 163.64380588 258.70446485 165.37182617 266.56762695 C166.81971402 271.50699294 168.66735162 276.0806777 172.86791992 279.2746582 C180.1474306 283.21275414 186.81720415 284.06513739 194.86791992 282.2746582 C200.77271442 280.08769728 204.43758989 276.64210102 207.68041992 271.2746582 C209.96833662 265.26558963 209.91424042 257.96929275 208.17651367 251.83325195 C205.50884587 245.95098865 200.9109328 241.6501874 194.86791992 239.2746582 C185.13045796 238.30988663 176.83070497 238.44600248 169.55541992 245.5246582 Z " fill="#27CB71" transform="translate(209.132080078125,116.725341796875)"/>
<path d="M0 0 C9.44669425 6.95285891 14.87601318 14.98276531 19.125 25.8125 C19.5375 26.781875 19.95 27.75125 20.375 28.75 C23.77923309 42.65061847 21.68623015 56.18076883 15.125 68.8125 C13.34511952 71.71173874 11.3680602 74.2589446 9.125 76.8125 C8.57457031 77.47894531 8.02414063 78.14539063 7.45703125 78.83203125 C1.82390012 85.11375317 -5.14973975 88.67135225 -12.875 91.8125 C-13.865 91.8125 -14.855 91.8125 -15.875 91.8125 C-15.8378414 119.85458643 -15.7779924 147.89654488 -15.69109726 175.93852329 C-15.65128032 188.9587735 -15.61890127 201.97896304 -15.60400391 214.99926758 C-15.5910012 226.34716861 -15.56407174 237.69493629 -15.52038693 249.04276222 C-15.49774122 255.05190431 -15.4820912 261.06088172 -15.48311615 267.07007027 C-15.48386091 272.72621123 -15.46598371 278.38198775 -15.43383217 284.03803444 C-15.42531424 286.11366362 -15.42359604 288.18933359 -15.42919731 290.26497269 C-15.43583008 293.10058247 -15.41793359 295.93503027 -15.39398193 298.77052307 C-15.40562256 300.00060548 -15.40562256 300.00060548 -15.41749835 301.25553805 C-15.33337364 306.88720705 -14.11938808 310.17905555 -10.875 314.8125 C-5.01625488 319.35601662 -0.13486308 320.61915145 7.125 319.8125 C13.41056953 318.00966223 17.82776569 313.59965985 22.5 309.2265625 C25.06756779 306.86531712 27.7134475 304.67765825 30.4375 302.5 C35.25085437 298.60994069 39.7726145 294.48378166 44.28613281 290.25683594 C48.49893141 286.33371407 52.88895352 282.69353586 57.37890625 279.08984375 C60.38819052 276.59423531 63.26438654 273.97484857 66.125 271.3125 C69.85827255 267.83830757 73.64871111 264.5118129 77.625 261.3125 C81.6791921 258.04922688 85.55659846 254.65669359 89.375 251.125 C89.87950684 250.65860107 90.38401367 250.19220215 90.90380859 249.71166992 C91.63591553 249.03454956 91.63591553 249.03454956 92.3828125 248.34375 C101.625 239.8125 101.625 239.8125 104.125 239.8125 C104.455 238.8225 104.785 237.8325 105.125 236.8125 C106.75713757 235.33238931 108.45590189 233.92491282 110.1875 232.5625 C114.94893872 228.76453778 119.57841539 224.86404102 124.125 220.8125 C127.90106225 223.63622203 130.76857436 226.61688631 133.6875 230.3125 C136.84163229 234.30058385 136.84163229 234.30058385 140.46484375 237.84375 C142.125 239.8125 142.125 239.8125 142.27734375 242.203125 C140.62061125 245.95464129 137.81853526 248.06246938 134.6875 250.5625 C133.40013701 251.62520713 132.11368335 252.68901675 130.828125 253.75390625 C130.19455078 254.27355957 129.56097656 254.79321289 128.90820312 255.32861328 C126.51961248 257.31627127 124.22667617 259.39912703 121.9375 261.5 C118.60272886 264.52962868 115.19212361 267.41858092 111.6875 270.25 C106.91215598 274.11191675 102.38832315 278.18924224 97.87109375 282.34765625 C95.20624834 284.73957297 92.47668175 287.00504884 89.6875 289.25 C85.69274676 292.4719418 81.8795686 295.81916084 78.125 299.3125 C72.65580516 304.39870049 66.95221768 309.13937413 61.125 313.8125 C58.26925927 316.1237139 55.4958245 318.43709742 52.91015625 321.0546875 C37.95704153 335.86099745 22.74486775 349.08740204 0.83178711 349.12939453 C-11.46295145 348.91838196 -22.6963582 343.87106306 -31.6875 335.5 C-41.93222729 324.58032598 -44.00755466 311.59859682 -44.43139648 297.23828125 C-44.45240634 296.5467074 -44.47341619 295.85513355 -44.49506271 295.14260292 C-45.06039599 276.10153233 -45.00416903 257.05662342 -44.97639394 238.00908279 C-44.97002494 232.8816263 -44.96954613 227.75416882 -44.96836853 222.62670898 C-44.96529428 212.9733764 -44.95713516 203.32005552 -44.94701904 193.66672802 C-44.93573453 182.65289601 -44.93031678 171.63906335 -44.92532361 160.62522697 C-44.91494797 138.02097823 -44.89742654 115.41673978 -44.875 92.8125 C-45.563022 92.54319168 -46.25104401 92.27388336 -46.95991516 91.99641418 C-47.86171005 91.64028549 -48.76350494 91.2841568 -49.69262695 90.91723633 C-50.58689896 90.56542801 -51.48117096 90.21361969 -52.40254211 89.85115051 C-57.08632651 87.88354771 -60.90902529 84.93964757 -64.875 81.8125 C-65.50277344 81.33554688 -66.13054687 80.85859375 -66.77734375 80.3671875 C-75.87835739 72.48376979 -81.14880495 58.58660911 -82.24609375 46.83984375 C-82.67890213 32.38895023 -79.4057679 20.09676415 -69.875 8.8125 C-69.07449219 7.86310547 -69.07449219 7.86310547 -68.2578125 6.89453125 C-50.05028037 -12.83755501 -21.72534622 -14.50979868 0 0 Z M-49.43359375 27.97265625 C-53.56310409 33.24365726 -54.49152477 38.43673762 -54.28515625 44.96875 C-53.21577429 52.38313162 -49.45817163 57.99973811 -43.71875 62.65625 C-37.434462 66.59724417 -31.09078746 66.49471991 -23.875 65.8125 C-17.2230378 64.08670357 -12.69476734 59.3563245 -8.875 53.8125 C-5.8314372 47.56250816 -5.72285682 40.64404593 -7.71484375 34.01953125 C-10.94091403 26.839624 -15.5989422 23.28811241 -22.25 19.4375 C-32.9732715 16.88434012 -42.05149011 19.87118288 -49.43359375 27.97265625 Z " fill="#39393B" transform="translate(145.875,47.1875)"/>
<path d="M0 0 C1.32 0.99 2.64 1.98 4 3 C3.67 3.66 3.34 4.32 3 5 C2.11006348 4.68107788 2.11006348 4.68107788 1.20214844 4.35571289 C-1.35121334 3.67839844 -1.35121334 3.67839844 -4.234375 6.30859375 C-5.4174703 7.33881719 -6.58902267 8.382414 -7.75 9.4375 C-8.35199219 9.96666016 -8.95398438 10.49582031 -9.57421875 11.04101562 C-11.05945571 12.34943866 -12.53107134 13.67329421 -14 15 C-14.66 14.67 -15.32 14.34 -16 14 C-14.08539961 12.22688737 -12.16842507 10.45646638 -10.25 8.6875 C-9.44175781 7.93823242 -9.44175781 7.93823242 -8.6171875 7.17382812 C-5.84396048 4.62043007 -3.07809771 2.18903551 0 0 Z " fill="#282527" transform="translate(270,268)"/>
<path d="M0 0 C0 3 0 3 -1.6875 4.796875 C-2.8321875 5.76367188 -2.8321875 5.76367188 -4 6.75 C-4.81339844 7.44609375 -5.62679687 8.1421875 -6.46484375 8.859375 C-7.30144531 9.56578125 -8.13804687 10.2721875 -9 11 C-10.52320868 12.33061908 -12.04425153 13.66372406 -13.5625 15 C-14.70801147 16.00036869 -15.85371665 17.00051588 -17 18 C-17 15 -17 15 -14.55078125 12.44140625 C-13.47888277 11.47336874 -12.39906764 10.51404282 -11.3125 9.5625 C-10.78205078 9.08490234 -10.25160156 8.60730469 -9.70507812 8.11523438 C-6.55535688 5.29787635 -3.32536207 2.60969973 0 0 Z " fill="#2A2A2B" transform="translate(246,289)"/>
<path d="M0 0 C1.32 0.99 2.64 1.98 4 3 C4 5.125 4 5.125 3 8 C0.50224217 10.25484692 -2.19801963 12.14265083 -5 14 C-4.2578125 10.21875 -4.2578125 10.21875 -1.9375 8.25 C-1.298125 7.8375 -0.65875 7.425 0 7 C-0.33 6.34 -0.66 5.68 -1 5 C-0.72057545 3.32345271 -0.39171753 1.65391846 0 0 Z " fill="#312F32" transform="translate(284,284)"/>
<path d="M0 0 C1.32 1.32 2.64 2.64 4 4 C2.35 6.97 0.7 9.94 -1 13 C-1.33 13 -1.66 13 -2 13 C-1.85851011 11.3954444 -1.71164314 9.79136233 -1.5625 8.1875 C-1.48128906 7.29417969 -1.40007812 6.40085937 -1.31640625 5.48046875 C-1 3 -1 3 0 0 Z " fill="#323233" transform="translate(66,74)"/>
<path d="M0 0 C0 3 0 3 -1.35546875 4.68359375 C-1.96003906 5.26238281 -2.56460938 5.84117187 -3.1875 6.4375 C-4.13882813 7.35015625 -4.13882813 7.35015625 -5.109375 8.28125 C-7.32686179 10.29714708 -9.61127784 12.190362 -12 14 C-12.66 13.67 -13.32 13.34 -14 13 C-9.38 8.71 -4.76 4.42 0 0 Z " fill="#2B2B2D" transform="translate(226,306)"/>
<path d="M0 0 C0 3 0 3 -1.125 4.625 C-3.68316224 6.50098564 -5.87258169 6.73383674 -9 7 C-9.66 6.67 -10.32 6.34 -11 6 C-7.37 4.02 -3.74 2.04 0 0 Z " fill="#3F3F41" transform="translate(141,131)"/>
<path d="M0 0 C0.66 0.33 1.32 0.66 2 1 C-1.49359465 4.59634744 -5.11098131 7.83451967 -9 11 C-9.66 10.67 -10.32 10.34 -11 10 C-5.555 5.05 -5.555 5.05 0 0 Z " fill="#303031" transform="translate(171,354)"/>
<path d="M0 0 C0.66 0.33 1.32 0.66 2 1 C0.40112446 2.48488441 -1.20428905 3.96273145 -2.8125 5.4375 C-3.70582031 6.26121094 -4.59914062 7.08492188 -5.51953125 7.93359375 C-8 10 -8 10 -11 11 C-11 10.34 -11 9.68 -11 9 C-9.3603279 7.63360658 -7.68889872 6.3050581 -6 5 C-4.9171875 3.9171875 -4.9171875 3.9171875 -3.8125 2.8125 C-2 1 -2 1 0 0 Z " fill="#2E2E2F" transform="translate(234,335)"/>
<path d="M0 0 C2.475 0.99 2.475 0.99 5 2 C4.67 3.32 4.34 4.64 4 6 C2.35 6.33 0.7 6.66 -1 7 C-0.67 4.69 -0.34 2.38 0 0 Z " fill="#3F3F41" transform="translate(97,66)"/>
<path d="M0 0 C3.63 1.32 7.26 2.64 11 4 C9.68 4.99 8.36 5.98 7 7 C4.33636533 5.66818267 2.24401957 3.94875383 0 2 C0 1.34 0 0.68 0 0 Z " fill="#303031" transform="translate(101,109)"/>
<path d="M0 0 C0.66 0.33 1.32 0.66 2 1 C1.67 4.3 1.34 7.6 1 11 C0.67 10.34 0.34 9.68 0 9 C-0.66 9 -1.32 9 -2 9 C-2 9.66 -2 10.32 -2 11 C-2.66 10.67 -3.32 10.34 -4 10 C-3.525625 9.278125 -3.05125 8.55625 -2.5625 7.8125 C-1.05847097 5.10524774 -0.43400818 3.03805725 0 0 Z " fill="#303036" transform="translate(166,90)"/>
<path d="M0 0 C0.99 0.66 1.98 1.32 3 2 C0.03 4.475 0.03 4.475 -3 7 C-3 4 -3 4 -2 1 C-1.34 0.67 -0.68 0.34 0 0 Z " fill="#333334" transform="translate(256,314)"/>
<path d="M0 0 C1.09570312 0.00902344 2.19140625 0.01804688 3.3203125 0.02734375 C4.16335937 0.03894531 5.00640625 0.05054688 5.875 0.0625 C5.875 0.3925 5.875 0.7225 5.875 1.0625 C4.97007813 1.15337891 4.97007813 1.15337891 4.046875 1.24609375 C2.84804687 1.37177734 2.84804687 1.37177734 1.625 1.5 C0.83609375 1.58121094 0.0471875 1.66242188 -0.765625 1.74609375 C-2.94864639 2.03884993 -5.0023182 2.48314419 -7.125 3.0625 C-7.455 2.4025 -7.785 1.7425 -8.125 1.0625 C-5.36047967 -0.31976016 -3.0788637 -0.03275387 0 0 Z " fill="#454548" transform="translate(115.125,63.9375)"/>
<path d="M0 0 C0.99 0.33 1.98 0.66 3 1 C3 3.66666667 3 6.33333333 3 9 C0.23776722 6.23776722 0.42143709 3.79293383 0 0 Z " fill="#323233" transform="translate(66,102)"/>
</svg>
